<?xml version="1.0" encoding="utf-8"?>
<!-- Generator: Adobe Illustrator 25.4.1, SVG Export Plug-In . SVG Version: 6.00 Build 0)  -->
<svg version="1.1" id="Layer_1" xmlns="http://www.w3.org/2000/svg" xmlns:xlink="http://www.w3.org/1999/xlink" x="0px" y="0px"
	 viewBox="0 0 58 45.4" style="enable-background:new 0 0 58 45.4;" xml:space="preserve">
<style type="text/css">
	.st0{fill:#FFFFFF;}
	.st1{font-family:'HelveticaNeue-Bold';}
	.st2{font-size:1px;}
</style>
<path d="M57,19c-0.6,0-1,0.4-1,1v6.6c-0.6-0.3-1.3-0.6-2-0.6H19V4h4v3.5h-0.5c-0.6,0-1,0.4-1,1v6c0,0.6,0.4,1,1,1h3c0.6,0,1-0.4,1-1
	v-6c0-0.6-0.4-1-1-1H25V3c0-0.6-0.4-1-1-1h-5V1c0-0.6-0.4-1-1-1s-1,0.4-1,1v1h-5c-0.6,0-1,0.4-1,1v4.5h-0.5c-0.6,0-1,0.4-1,1v6
	c0,0.6,0.4,1,1,1h3c0.6,0,1-0.4,1-1v-6c0-0.6-0.4-1-1-1H13V4h4v22h-1.5v-1.5c0-1.4-1.1-2.5-2.5-2.5H4.5C3.1,22,2,23.1,2,24.5V14
	c0-0.6-0.4-1-1-1s-1,0.4-1,1v30c0,0.6,0.4,1,1,1s1-0.4,1-1v-8h15v7.4h-3.2c-0.6,0-1,0.4-1,1s0.4,1,1,1h8.5c0.6,0,1-0.4,1-1
	s-0.4-1-1-1H19V36h37v8c0,0.6,0.4,1,1,1s1-0.4,1-1V20C58,19.4,57.6,19,57,19z M24.5,13.5h-1v-4h1V13.5z M12.5,13.5h-1v-4h1V13.5z
	 M4.5,24H13c0.3,0,0.5,0.2,0.5,0.5V26H4v-1.5C4,24.2,4.2,24,4.5,24z M2,34v-6h52c1.1,0,2,0.9,2,2v4H2z"/>
<text transform="matrix(1 0 0 1 1.9998 35.2982)" class="st0 st1 st2">Created by inDhika</text>
<text transform="matrix(1 0 0 1 11.3359 35.2979)" class="st0 st1 st2">from the Noun Project</text>
</svg>
